<mxfile host="app.diagrams.net" modified="2021-05-11T13:54:56.306Z" agent="5.0 (X11)" etag="j_bS_Q53GYwg0H1pOHbj" version="14.6.11" type="github">
  <diagram id="CiDN6joiwhxr-PawL9kj" name="Page-1">
    <mxGraphModel dx="2333" dy="1309" grid="1" gridSize="10" guides="1" tooltips="1" connect="1" arrows="1" fold="1" page="1" pageScale="1" pageWidth="850" pageHeight="1100" math="0" shadow="0">
      <root>
        <mxCell id="0" />
        <mxCell id="1" parent="0" />
        <mxCell id="seIJz2Ff4AP9gcfTDW53-10" value="" style="edgeStyle=orthogonalEdgeStyle;rounded=0;orthogonalLoop=1;jettySize=auto;html=1;" edge="1" parent="1" source="seIJz2Ff4AP9gcfTDW53-2" target="seIJz2Ff4AP9gcfTDW53-6">
          <mxGeometry relative="1" as="geometry" />
        </mxCell>
        <mxCell id="seIJz2Ff4AP9gcfTDW53-2" value="Workflows" style="rounded=0;whiteSpace=wrap;html=1;" vertex="1" parent="1">
          <mxGeometry x="190" y="120" width="120" height="60" as="geometry" />
        </mxCell>
        <mxCell id="seIJz2Ff4AP9gcfTDW53-3" value="src" style="rounded=0;whiteSpace=wrap;html=1;" vertex="1" parent="1">
          <mxGeometry x="540" y="120" width="120" height="60" as="geometry" />
        </mxCell>
        <mxCell id="seIJz2Ff4AP9gcfTDW53-4" value="Main.nf" style="rounded=1;whiteSpace=wrap;html=1;" vertex="1" parent="1">
          <mxGeometry x="365" y="20" width="120" height="60" as="geometry" />
        </mxCell>
        <mxCell id="seIJz2Ff4AP9gcfTDW53-5" value="iss.nf" style="rounded=1;whiteSpace=wrap;html=1;" vertex="1" parent="1">
          <mxGeometry x="10" y="240" width="100" height="40" as="geometry" />
        </mxCell>
        <mxCell id="seIJz2Ff4AP9gcfTDW53-6" value="merfish.nf" style="rounded=1;whiteSpace=wrap;html=1;" vertex="1" parent="1">
          <mxGeometry x="200" y="240" width="100" height="40" as="geometry" />
        </mxCell>
        <mxCell id="seIJz2Ff4AP9gcfTDW53-11" value="" style="endArrow=classic;html=1;entryX=0.5;entryY=0;entryDx=0;entryDy=0;exitX=0.25;exitY=1;exitDx=0;exitDy=0;" edge="1" parent="1" source="seIJz2Ff4AP9gcfTDW53-2" target="seIJz2Ff4AP9gcfTDW53-5">
          <mxGeometry width="50" height="50" relative="1" as="geometry">
            <mxPoint x="190" y="160" as="sourcePoint" />
            <mxPoint x="240" y="110" as="targetPoint" />
          </mxGeometry>
        </mxCell>
        <mxCell id="seIJz2Ff4AP9gcfTDW53-13" value="" style="endArrow=classic;html=1;entryX=0.5;entryY=0;entryDx=0;entryDy=0;exitX=0.017;exitY=0.367;exitDx=0;exitDy=0;exitPerimeter=0;" edge="1" parent="1" source="seIJz2Ff4AP9gcfTDW53-4" target="seIJz2Ff4AP9gcfTDW53-2">
          <mxGeometry width="50" height="50" relative="1" as="geometry">
            <mxPoint x="320" y="80" as="sourcePoint" />
            <mxPoint x="370" y="30" as="targetPoint" />
          </mxGeometry>
        </mxCell>
        <mxCell id="seIJz2Ff4AP9gcfTDW53-14" value="" style="endArrow=classic;html=1;entryX=0.5;entryY=0;entryDx=0;entryDy=0;exitX=0.017;exitY=0.367;exitDx=0;exitDy=0;exitPerimeter=0;" edge="1" parent="1" target="seIJz2Ff4AP9gcfTDW53-3">
          <mxGeometry width="50" height="50" relative="1" as="geometry">
            <mxPoint x="487.03999999999996" y="42.01999999999998" as="sourcePoint" />
            <mxPoint x="370" y="120" as="targetPoint" />
          </mxGeometry>
        </mxCell>
        <mxCell id="seIJz2Ff4AP9gcfTDW53-15" value="" style="endArrow=classic;html=1;entryX=0.017;entryY=0.65;entryDx=0;entryDy=0;entryPerimeter=0;" edge="1" parent="1" target="seIJz2Ff4AP9gcfTDW53-3">
          <mxGeometry width="50" height="50" relative="1" as="geometry">
            <mxPoint x="310" y="160" as="sourcePoint" />
            <mxPoint x="360" y="110" as="targetPoint" />
          </mxGeometry>
        </mxCell>
      </root>
    </mxGraphModel>
  </diagram>
</mxfile>
